<mxfile host="app.diagrams.net" modified="2024-06-03T18:58:02.673Z" agent="Mozilla/5.0 (Windows NT 10.0; Win64; x64) AppleWebKit/537.36 (KHTML, like Gecko) Chrome/123.0.0.0 Safari/537.36 OPR/109.0.0.0 (Edition std-1)" version="24.4.10" etag="_o932Aj4Q5Ou-F_lTLIl" type="github">
  <diagram name="PÃ¡gina-1" id="cls1tDy3uuqYmRAjM-3_">
    <mxGraphModel>
      <root>
        <mxCell id="0" />
        <mxCell id="1" parent="0" />
      </root>
    </mxGraphModel>
  </diagram>
</mxfile>
